<mxfile host="app.diagrams.net" modified="2021-04-25T23:38:49.113Z" agent="5.0 (Macintosh; Intel Mac OS X 10_15_7) AppleWebKit/537.36 (KHTML, like Gecko) Chrome/90.0.4430.85 Safari/537.36" etag="PKrFqVkZflAF19D_jStp" version="14.5.10" type="github">
  <diagram id="-zu1wHsi5U8wWwYV3vUu" name="Page-1">
    <mxGraphModel dx="2013" dy="563" grid="1" gridSize="10" guides="1" tooltips="1" connect="1" arrows="1" fold="1" page="1" pageScale="1" pageWidth="827" pageHeight="1169" math="0" shadow="0">
      <root>
        <mxCell id="0" />
        <mxCell id="1" parent="0" />
        <mxCell id="xluItXaHplUzPCtTJGUi-64" value="" style="rounded=0;whiteSpace=wrap;html=1;fillColor=#FFFFFF;" vertex="1" parent="1">
          <mxGeometry x="281" y="1120" width="289" height="220" as="geometry" />
        </mxCell>
        <mxCell id="2hIDPYV7rA0OZXTXG9J4-33" style="edgeStyle=orthogonalEdgeStyle;rounded=0;orthogonalLoop=1;jettySize=auto;html=1;entryX=0;entryY=0.5;entryDx=0;entryDy=0;" parent="1" source="2hIDPYV7rA0OZXTXG9J4-24" target="2hIDPYV7rA0OZXTXG9J4-32" edge="1">
          <mxGeometry relative="1" as="geometry" />
        </mxCell>
        <mxCell id="2hIDPYV7rA0OZXTXG9J4-24" value="Customer" style="shape=umlActor;verticalLabelPosition=bottom;verticalAlign=top;html=1;outlineConnect=0;" parent="1" vertex="1">
          <mxGeometry x="5" y="630" width="30" height="60" as="geometry" />
        </mxCell>
        <mxCell id="2hIDPYV7rA0OZXTXG9J4-36" style="edgeStyle=orthogonalEdgeStyle;rounded=0;orthogonalLoop=1;jettySize=auto;html=1;" parent="1" source="2hIDPYV7rA0OZXTXG9J4-32" target="2hIDPYV7rA0OZXTXG9J4-35" edge="1">
          <mxGeometry relative="1" as="geometry" />
        </mxCell>
        <mxCell id="2hIDPYV7rA0OZXTXG9J4-32" value="Contact Us" style="rhombus;whiteSpace=wrap;html=1;fillColor=#f5f5f5;strokeColor=#666666;fontColor=#333333;" parent="1" vertex="1">
          <mxGeometry x="189" y="620" width="80" height="80" as="geometry" />
        </mxCell>
        <mxCell id="2hIDPYV7rA0OZXTXG9J4-34" value="&lt;font&gt;&lt;br&gt;&lt;/font&gt;" style="text;html=1;strokeColor=none;fillColor=none;align=center;verticalAlign=middle;whiteSpace=wrap;rounded=0;" parent="1" vertex="1">
          <mxGeometry x="49" y="620" width="131" height="40" as="geometry" />
        </mxCell>
        <mxCell id="2hIDPYV7rA0OZXTXG9J4-38" style="edgeStyle=orthogonalEdgeStyle;rounded=0;orthogonalLoop=1;jettySize=auto;html=1;entryX=0;entryY=0.5;entryDx=0;entryDy=0;" parent="1" source="2hIDPYV7rA0OZXTXG9J4-35" target="2hIDPYV7rA0OZXTXG9J4-37" edge="1">
          <mxGeometry relative="1" as="geometry" />
        </mxCell>
        <mxCell id="2hIDPYV7rA0OZXTXG9J4-35" value="Unity team" style="rounded=0;whiteSpace=wrap;html=1;" parent="1" vertex="1">
          <mxGeometry x="320" y="630" width="120" height="60" as="geometry" />
        </mxCell>
        <mxCell id="2hIDPYV7rA0OZXTXG9J4-40" style="edgeStyle=orthogonalEdgeStyle;rounded=0;orthogonalLoop=1;jettySize=auto;html=1;entryX=0;entryY=0.5;entryDx=0;entryDy=0;" parent="1" source="2hIDPYV7rA0OZXTXG9J4-37" target="2hIDPYV7rA0OZXTXG9J4-39" edge="1">
          <mxGeometry relative="1" as="geometry" />
        </mxCell>
        <mxCell id="2hIDPYV7rA0OZXTXG9J4-37" value="Modify model" style="rhombus;whiteSpace=wrap;html=1;fillColor=#f5f5f5;strokeColor=#666666;fontColor=#333333;" parent="1" vertex="1">
          <mxGeometry x="481" y="620" width="100" height="80" as="geometry" />
        </mxCell>
        <mxCell id="2hIDPYV7rA0OZXTXG9J4-39" value="Server" style="rounded=0;whiteSpace=wrap;html=1;" parent="1" vertex="1">
          <mxGeometry x="879" y="630" width="120" height="60" as="geometry" />
        </mxCell>
        <mxCell id="2hIDPYV7rA0OZXTXG9J4-42" value="&lt;font&gt;&lt;br&gt;&lt;/font&gt;" style="text;html=1;strokeColor=none;fillColor=none;align=center;verticalAlign=middle;whiteSpace=wrap;rounded=0;" parent="1" vertex="1">
          <mxGeometry x="601" y="620" width="170" height="40" as="geometry" />
        </mxCell>
        <mxCell id="2hIDPYV7rA0OZXTXG9J4-43" value="&lt;span style=&quot;font-size: 15px&quot;&gt;Add new &lt;br&gt;model&lt;/span&gt;" style="ellipse;shape=cloud;whiteSpace=wrap;html=1;" parent="1" vertex="1">
          <mxGeometry x="35" y="580" width="155.5" height="70" as="geometry" />
        </mxCell>
        <mxCell id="2hIDPYV7rA0OZXTXG9J4-44" value="&lt;span style=&quot;font-size: 15px&quot;&gt;Upload model &lt;br&gt;to server&lt;/span&gt;" style="ellipse;shape=cloud;whiteSpace=wrap;html=1;" parent="1" vertex="1">
          <mxGeometry x="610" y="580" width="180" height="80" as="geometry" />
        </mxCell>
        <mxCell id="2hIDPYV7rA0OZXTXG9J4-49" style="edgeStyle=orthogonalEdgeStyle;rounded=0;orthogonalLoop=1;jettySize=auto;html=1;entryX=0;entryY=0.5;entryDx=0;entryDy=0;" parent="1" source="2hIDPYV7rA0OZXTXG9J4-45" target="2hIDPYV7rA0OZXTXG9J4-48" edge="1">
          <mxGeometry relative="1" as="geometry" />
        </mxCell>
        <mxCell id="2hIDPYV7rA0OZXTXG9J4-45" value="User" style="shape=umlActor;verticalLabelPosition=bottom;verticalAlign=top;html=1;outlineConnect=0;" parent="1" vertex="1">
          <mxGeometry x="10" y="900" width="30" height="60" as="geometry" />
        </mxCell>
        <mxCell id="2hIDPYV7rA0OZXTXG9J4-52" style="edgeStyle=orthogonalEdgeStyle;rounded=0;orthogonalLoop=1;jettySize=auto;html=1;entryX=0;entryY=0.5;entryDx=0;entryDy=0;" parent="1" source="2hIDPYV7rA0OZXTXG9J4-48" target="2hIDPYV7rA0OZXTXG9J4-50" edge="1">
          <mxGeometry relative="1" as="geometry" />
        </mxCell>
        <mxCell id="2hIDPYV7rA0OZXTXG9J4-48" value="Go to &lt;br&gt;website" style="rhombus;whiteSpace=wrap;html=1;fillColor=#f5f5f5;strokeColor=#666666;fontColor=#333333;" parent="1" vertex="1">
          <mxGeometry x="189" y="890" width="80" height="80" as="geometry" />
        </mxCell>
        <mxCell id="2hIDPYV7rA0OZXTXG9J4-54" style="edgeStyle=orthogonalEdgeStyle;rounded=0;orthogonalLoop=1;jettySize=auto;html=1;entryX=0;entryY=0.5;entryDx=0;entryDy=0;" parent="1" source="2hIDPYV7rA0OZXTXG9J4-50" target="2hIDPYV7rA0OZXTXG9J4-53" edge="1">
          <mxGeometry relative="1" as="geometry" />
        </mxCell>
        <mxCell id="2hIDPYV7rA0OZXTXG9J4-50" value="Home View" style="rounded=0;whiteSpace=wrap;html=1;" parent="1" vertex="1">
          <mxGeometry x="320" y="900" width="120" height="60" as="geometry" />
        </mxCell>
        <mxCell id="2hIDPYV7rA0OZXTXG9J4-56" style="edgeStyle=orthogonalEdgeStyle;rounded=0;orthogonalLoop=1;jettySize=auto;html=1;" parent="1" source="2hIDPYV7rA0OZXTXG9J4-53" target="2hIDPYV7rA0OZXTXG9J4-55" edge="1">
          <mxGeometry relative="1" as="geometry" />
        </mxCell>
        <mxCell id="2hIDPYV7rA0OZXTXG9J4-53" value="Choice house &lt;br&gt;model" style="rhombus;whiteSpace=wrap;html=1;fillColor=#f5f5f5;strokeColor=#666666;fontColor=#333333;" parent="1" vertex="1">
          <mxGeometry x="491" y="890" width="119" height="80" as="geometry" />
        </mxCell>
        <mxCell id="2hIDPYV7rA0OZXTXG9J4-59" style="edgeStyle=orthogonalEdgeStyle;rounded=0;orthogonalLoop=1;jettySize=auto;html=1;entryX=0;entryY=0.5;entryDx=0;entryDy=0;" parent="1" source="2hIDPYV7rA0OZXTXG9J4-55" target="2hIDPYV7rA0OZXTXG9J4-57" edge="1">
          <mxGeometry relative="1" as="geometry" />
        </mxCell>
        <mxCell id="2hIDPYV7rA0OZXTXG9J4-55" value="House info View" style="rounded=0;whiteSpace=wrap;html=1;" parent="1" vertex="1">
          <mxGeometry x="696" y="900" width="120" height="60" as="geometry" />
        </mxCell>
        <mxCell id="2hIDPYV7rA0OZXTXG9J4-65" style="edgeStyle=orthogonalEdgeStyle;rounded=0;orthogonalLoop=1;jettySize=auto;html=1;entryX=0;entryY=0.5;entryDx=0;entryDy=0;" parent="1" source="2hIDPYV7rA0OZXTXG9J4-57" target="2hIDPYV7rA0OZXTXG9J4-64" edge="1">
          <mxGeometry relative="1" as="geometry" />
        </mxCell>
        <mxCell id="2hIDPYV7rA0OZXTXG9J4-57" value="Get content" style="rhombus;whiteSpace=wrap;html=1;fillColor=#f5f5f5;strokeColor=#666666;fontColor=#333333;" parent="1" vertex="1">
          <mxGeometry x="880" y="890" width="119" height="80" as="geometry" />
        </mxCell>
        <mxCell id="2hIDPYV7rA0OZXTXG9J4-67" style="edgeStyle=orthogonalEdgeStyle;rounded=0;orthogonalLoop=1;jettySize=auto;html=1;" parent="1" source="2hIDPYV7rA0OZXTXG9J4-64" target="xluItXaHplUzPCtTJGUi-59" edge="1">
          <mxGeometry relative="1" as="geometry">
            <mxPoint x="1250" y="930" as="targetPoint" />
          </mxGeometry>
        </mxCell>
        <mxCell id="2hIDPYV7rA0OZXTXG9J4-64" value="Server" style="rounded=0;whiteSpace=wrap;html=1;fillColor=#f8cecc;strokeColor=#b85450;" parent="1" vertex="1">
          <mxGeometry x="1070" y="900" width="120" height="60" as="geometry" />
        </mxCell>
        <mxCell id="2hIDPYV7rA0OZXTXG9J4-70" style="edgeStyle=orthogonalEdgeStyle;rounded=0;orthogonalLoop=1;jettySize=auto;html=1;" parent="1" source="2hIDPYV7rA0OZXTXG9J4-71" edge="1">
          <mxGeometry relative="1" as="geometry">
            <mxPoint x="808" y="2070" as="targetPoint" />
          </mxGeometry>
        </mxCell>
        <mxCell id="2hIDPYV7rA0OZXTXG9J4-71" value="&lt;font style=&quot;font-size: 42px&quot;&gt;Server&lt;/font&gt;" style="rounded=1;whiteSpace=wrap;html=1;" parent="1" vertex="1">
          <mxGeometry x="730" y="1660" width="156" height="70" as="geometry" />
        </mxCell>
        <mxCell id="2hIDPYV7rA0OZXTXG9J4-72" style="edgeStyle=orthogonalEdgeStyle;rounded=0;orthogonalLoop=1;jettySize=auto;html=1;" parent="1" source="2hIDPYV7rA0OZXTXG9J4-73" edge="1">
          <mxGeometry relative="1" as="geometry">
            <mxPoint x="160" y="2070" as="targetPoint" />
          </mxGeometry>
        </mxCell>
        <mxCell id="2hIDPYV7rA0OZXTXG9J4-73" value="&lt;span style=&quot;font-size: 42px&quot;&gt;Unity&lt;/span&gt;" style="rounded=1;whiteSpace=wrap;html=1;" parent="1" vertex="1">
          <mxGeometry x="80" y="1660" width="156" height="70" as="geometry" />
        </mxCell>
        <mxCell id="2hIDPYV7rA0OZXTXG9J4-74" style="edgeStyle=orthogonalEdgeStyle;rounded=0;orthogonalLoop=1;jettySize=auto;html=1;" parent="1" source="2hIDPYV7rA0OZXTXG9J4-75" edge="1">
          <mxGeometry relative="1" as="geometry">
            <mxPoint x="468" y="2070" as="targetPoint" />
          </mxGeometry>
        </mxCell>
        <mxCell id="2hIDPYV7rA0OZXTXG9J4-75" value="&lt;span style=&quot;font-size: 42px&quot;&gt;Web&lt;/span&gt;" style="rounded=1;whiteSpace=wrap;html=1;" parent="1" vertex="1">
          <mxGeometry x="390" y="1660" width="156" height="70" as="geometry" />
        </mxCell>
        <mxCell id="2hIDPYV7rA0OZXTXG9J4-76" value="" style="endArrow=classic;html=1;" parent="1" edge="1">
          <mxGeometry width="50" height="50" relative="1" as="geometry">
            <mxPoint x="160" y="1770" as="sourcePoint" />
            <mxPoint x="470" y="1770" as="targetPoint" />
          </mxGeometry>
        </mxCell>
        <mxCell id="2hIDPYV7rA0OZXTXG9J4-77" value="&lt;font style=&quot;font-size: 20px&quot;&gt;OnChoiceObject&lt;/font&gt;" style="text;html=1;strokeColor=none;fillColor=none;align=center;verticalAlign=middle;whiteSpace=wrap;rounded=0;" parent="1" vertex="1">
          <mxGeometry x="220" y="1740" width="190" height="20" as="geometry" />
        </mxCell>
        <mxCell id="2hIDPYV7rA0OZXTXG9J4-78" value="" style="endArrow=classic;html=1;" parent="1" edge="1">
          <mxGeometry width="50" height="50" relative="1" as="geometry">
            <mxPoint x="469" y="1840" as="sourcePoint" />
            <mxPoint x="809" y="1840" as="targetPoint" />
          </mxGeometry>
        </mxCell>
        <mxCell id="2hIDPYV7rA0OZXTXG9J4-79" value="&lt;font style=&quot;font-size: 20px&quot;&gt;GetDataServer&lt;/font&gt;" style="text;html=1;strokeColor=none;fillColor=none;align=center;verticalAlign=middle;whiteSpace=wrap;rounded=0;" parent="1" vertex="1">
          <mxGeometry x="589" y="1810" width="100" height="20" as="geometry" />
        </mxCell>
        <mxCell id="2hIDPYV7rA0OZXTXG9J4-80" value="" style="endArrow=classic;html=1;" parent="1" edge="1">
          <mxGeometry width="50" height="50" relative="1" as="geometry">
            <mxPoint x="809" y="1910" as="sourcePoint" />
            <mxPoint x="469" y="1910" as="targetPoint" />
          </mxGeometry>
        </mxCell>
        <mxCell id="2hIDPYV7rA0OZXTXG9J4-81" value="&lt;font style=&quot;font-size: 20px&quot;&gt;ReturnData&lt;/font&gt;" style="text;html=1;strokeColor=none;fillColor=none;align=center;verticalAlign=middle;whiteSpace=wrap;rounded=0;" parent="1" vertex="1">
          <mxGeometry x="569" y="1890" width="140" height="20" as="geometry" />
        </mxCell>
        <mxCell id="2hIDPYV7rA0OZXTXG9J4-82" value="" style="endArrow=classic;html=1;" parent="1" edge="1">
          <mxGeometry width="50" height="50" relative="1" as="geometry">
            <mxPoint x="470" y="2000" as="sourcePoint" />
            <mxPoint x="160" y="2000" as="targetPoint" />
          </mxGeometry>
        </mxCell>
        <mxCell id="2hIDPYV7rA0OZXTXG9J4-83" value="&lt;font style=&quot;font-size: 20px&quot;&gt;OnChoiceParam&lt;br&gt;&lt;/font&gt;" style="text;html=1;strokeColor=none;fillColor=none;align=center;verticalAlign=middle;whiteSpace=wrap;rounded=0;" parent="1" vertex="1">
          <mxGeometry x="250" y="1970" width="140" height="20" as="geometry" />
        </mxCell>
        <mxCell id="2hIDPYV7rA0OZXTXG9J4-84" value="Show/change information in web view" style="rounded=0;whiteSpace=wrap;html=1;" parent="1" vertex="1">
          <mxGeometry x="339" y="1880" width="120" height="60" as="geometry" />
        </mxCell>
        <mxCell id="2hIDPYV7rA0OZXTXG9J4-85" value="Handle event from unity" style="rounded=0;whiteSpace=wrap;html=1;" parent="1" vertex="1">
          <mxGeometry x="484" y="1740" width="120" height="60" as="geometry" />
        </mxCell>
        <mxCell id="2hIDPYV7rA0OZXTXG9J4-86" value="Query information needed of object" style="rounded=0;whiteSpace=wrap;html=1;" parent="1" vertex="1">
          <mxGeometry x="830" y="1810" width="120" height="60" as="geometry" />
        </mxCell>
        <mxCell id="2hIDPYV7rA0OZXTXG9J4-87" value="Show/change information in Unity view" style="rounded=0;whiteSpace=wrap;html=1;" parent="1" vertex="1">
          <mxGeometry x="30" y="1970" width="120" height="60" as="geometry" />
        </mxCell>
        <mxCell id="shSTtiIgDGdaLxm5VOx7-21" value="" style="rounded=0;whiteSpace=wrap;html=1;" parent="1" vertex="1">
          <mxGeometry x="1150" y="1760" width="670" height="570" as="geometry" />
        </mxCell>
        <mxCell id="shSTtiIgDGdaLxm5VOx7-22" value="&lt;font style=&quot;font-size: 30px&quot;&gt;Model description&lt;/font&gt;" style="text;html=1;strokeColor=none;fillColor=none;align=center;verticalAlign=middle;whiteSpace=wrap;rounded=0;" parent="1" vertex="1">
          <mxGeometry x="1150" y="1760" width="280" height="40" as="geometry" />
        </mxCell>
        <mxCell id="xluItXaHplUzPCtTJGUi-32" value="Unity view" style="rounded=0;whiteSpace=wrap;html=1;" vertex="1" parent="1">
          <mxGeometry x="350" y="1160" width="120" height="60" as="geometry" />
        </mxCell>
        <mxCell id="xluItXaHplUzPCtTJGUi-33" value="Web View" style="rounded=0;whiteSpace=wrap;html=1;" vertex="1" parent="1">
          <mxGeometry x="350" y="1270" width="120" height="60" as="geometry" />
        </mxCell>
        <mxCell id="xluItXaHplUzPCtTJGUi-34" style="edgeStyle=orthogonalEdgeStyle;rounded=0;orthogonalLoop=1;jettySize=auto;html=1;entryX=0;entryY=0.5;entryDx=0;entryDy=0;" edge="1" parent="1" source="xluItXaHplUzPCtTJGUi-36" target="xluItXaHplUzPCtTJGUi-32">
          <mxGeometry relative="1" as="geometry" />
        </mxCell>
        <mxCell id="xluItXaHplUzPCtTJGUi-35" style="edgeStyle=orthogonalEdgeStyle;rounded=0;orthogonalLoop=1;jettySize=auto;html=1;entryX=0;entryY=0.5;entryDx=0;entryDy=0;" edge="1" parent="1" source="xluItXaHplUzPCtTJGUi-36" target="xluItXaHplUzPCtTJGUi-33">
          <mxGeometry relative="1" as="geometry" />
        </mxCell>
        <mxCell id="xluItXaHplUzPCtTJGUi-36" value="Show content" style="rhombus;whiteSpace=wrap;html=1;fillColor=#f5f5f5;strokeColor=#666666;fontColor=#333333;" vertex="1" parent="1">
          <mxGeometry x="130" y="1190" width="119" height="80" as="geometry" />
        </mxCell>
        <mxCell id="xluItXaHplUzPCtTJGUi-37" value="" style="endArrow=none;html=1;entryX=1;entryY=0.5;entryDx=0;entryDy=0;" edge="1" parent="1" target="xluItXaHplUzPCtTJGUi-33">
          <mxGeometry width="50" height="50" relative="1" as="geometry">
            <mxPoint x="560" y="1240" as="sourcePoint" />
            <mxPoint x="440" y="1270" as="targetPoint" />
            <Array as="points">
              <mxPoint x="560" y="1300" />
            </Array>
          </mxGeometry>
        </mxCell>
        <mxCell id="xluItXaHplUzPCtTJGUi-38" value="" style="endArrow=none;html=1;" edge="1" parent="1" target="xluItXaHplUzPCtTJGUi-32">
          <mxGeometry width="50" height="50" relative="1" as="geometry">
            <mxPoint x="560" y="1240" as="sourcePoint" />
            <mxPoint x="470" y="1189" as="targetPoint" />
            <Array as="points">
              <mxPoint x="560" y="1190" />
            </Array>
          </mxGeometry>
        </mxCell>
        <mxCell id="xluItXaHplUzPCtTJGUi-39" value="" style="endArrow=classic;html=1;" edge="1" parent="1">
          <mxGeometry width="50" height="50" relative="1" as="geometry">
            <mxPoint x="560" y="1240" as="sourcePoint" />
            <mxPoint x="640" y="1240" as="targetPoint" />
          </mxGeometry>
        </mxCell>
        <mxCell id="xluItXaHplUzPCtTJGUi-40" style="edgeStyle=orthogonalEdgeStyle;rounded=0;orthogonalLoop=1;jettySize=auto;html=1;entryX=0;entryY=0.5;entryDx=0;entryDy=0;" edge="1" parent="1" source="xluItXaHplUzPCtTJGUi-41" target="xluItXaHplUzPCtTJGUi-45">
          <mxGeometry relative="1" as="geometry" />
        </mxCell>
        <mxCell id="xluItXaHplUzPCtTJGUi-41" value="Modified house&lt;br&gt;design" style="rhombus;whiteSpace=wrap;html=1;fillColor=#f5f5f5;strokeColor=#666666;fontColor=#333333;" vertex="1" parent="1">
          <mxGeometry x="640" y="1200" width="119" height="80" as="geometry" />
        </mxCell>
        <mxCell id="xluItXaHplUzPCtTJGUi-42" style="edgeStyle=orthogonalEdgeStyle;rounded=0;orthogonalLoop=1;jettySize=auto;html=1;entryX=0;entryY=0.5;entryDx=0;entryDy=0;" edge="1" parent="1" source="xluItXaHplUzPCtTJGUi-45" target="xluItXaHplUzPCtTJGUi-47">
          <mxGeometry relative="1" as="geometry">
            <Array as="points">
              <mxPoint x="1070" y="1240" />
              <mxPoint x="1070" y="1100" />
            </Array>
          </mxGeometry>
        </mxCell>
        <mxCell id="xluItXaHplUzPCtTJGUi-43" style="edgeStyle=orthogonalEdgeStyle;rounded=0;orthogonalLoop=1;jettySize=auto;html=1;" edge="1" parent="1" source="xluItXaHplUzPCtTJGUi-45" target="xluItXaHplUzPCtTJGUi-49">
          <mxGeometry relative="1" as="geometry">
            <Array as="points">
              <mxPoint x="1070" y="1240" />
              <mxPoint x="1070" y="1280" />
            </Array>
          </mxGeometry>
        </mxCell>
        <mxCell id="xluItXaHplUzPCtTJGUi-44" style="edgeStyle=orthogonalEdgeStyle;rounded=0;orthogonalLoop=1;jettySize=auto;html=1;" edge="1" parent="1" source="xluItXaHplUzPCtTJGUi-45" target="xluItXaHplUzPCtTJGUi-53">
          <mxGeometry relative="1" as="geometry">
            <Array as="points">
              <mxPoint x="1070" y="1240" />
              <mxPoint x="1070" y="1190" />
            </Array>
          </mxGeometry>
        </mxCell>
        <mxCell id="xluItXaHplUzPCtTJGUi-45" value="&lt;font style=&quot;font-size: 12px&quot;&gt;&lt;span style=&quot;font-family: &amp;#34;calibri&amp;#34;&quot;&gt;House Estimate&lt;/span&gt;&lt;/font&gt;&lt;font style=&quot;font-size: 12px&quot;&gt;&lt;br&gt;&lt;/font&gt;&lt;p style=&quot;margin-top: 0pt ; margin-bottom: 0pt ; margin-left: 0in ; direction: ltr ; unicode-bidi: embed ; word-break: normal&quot;&gt;&lt;span style=&quot;font-family: &amp;#34;calibri&amp;#34;&quot;&gt;&lt;font style=&quot;font-size: 12px&quot;&gt;View&lt;/font&gt;&lt;/span&gt;&lt;/p&gt;" style="rounded=0;whiteSpace=wrap;html=1;" vertex="1" parent="1">
          <mxGeometry x="890" y="1210" width="120" height="60" as="geometry" />
        </mxCell>
        <mxCell id="xluItXaHplUzPCtTJGUi-46" style="edgeStyle=orthogonalEdgeStyle;rounded=0;orthogonalLoop=1;jettySize=auto;html=1;entryX=0;entryY=0.5;entryDx=0;entryDy=0;" edge="1" parent="1" source="xluItXaHplUzPCtTJGUi-47" target="xluItXaHplUzPCtTJGUi-51">
          <mxGeometry relative="1" as="geometry" />
        </mxCell>
        <mxCell id="xluItXaHplUzPCtTJGUi-47" value="Print" style="rhombus;whiteSpace=wrap;html=1;fillColor=#f5f5f5;strokeColor=#666666;fontColor=#333333;" vertex="1" parent="1">
          <mxGeometry x="1100" y="1060" width="119" height="80" as="geometry" />
        </mxCell>
        <mxCell id="xluItXaHplUzPCtTJGUi-48" style="edgeStyle=orthogonalEdgeStyle;rounded=0;orthogonalLoop=1;jettySize=auto;html=1;" edge="1" parent="1" source="xluItXaHplUzPCtTJGUi-49" target="xluItXaHplUzPCtTJGUi-50">
          <mxGeometry relative="1" as="geometry" />
        </mxCell>
        <mxCell id="xluItXaHplUzPCtTJGUi-49" value="&lt;span style=&quot;color: rgb(0 , 0 , 0)&quot;&gt;Reservation&lt;/span&gt;" style="rhombus;whiteSpace=wrap;html=1;fillColor=#f5f5f5;strokeColor=#666666;fontColor=#333333;" vertex="1" parent="1">
          <mxGeometry x="1100" y="1240" width="119" height="80" as="geometry" />
        </mxCell>
        <mxCell id="xluItXaHplUzPCtTJGUi-50" value="Online Reservation View" style="rounded=0;whiteSpace=wrap;html=1;" vertex="1" parent="1">
          <mxGeometry x="1300" y="1250" width="120" height="60" as="geometry" />
        </mxCell>
        <mxCell id="xluItXaHplUzPCtTJGUi-51" value="Print est cost" style="rounded=0;whiteSpace=wrap;html=1;" vertex="1" parent="1">
          <mxGeometry x="1300" y="1070" width="120" height="60" as="geometry" />
        </mxCell>
        <mxCell id="xluItXaHplUzPCtTJGUi-52" style="edgeStyle=orthogonalEdgeStyle;rounded=0;orthogonalLoop=1;jettySize=auto;html=1;" edge="1" parent="1" source="xluItXaHplUzPCtTJGUi-53" target="xluItXaHplUzPCtTJGUi-54">
          <mxGeometry relative="1" as="geometry" />
        </mxCell>
        <mxCell id="xluItXaHplUzPCtTJGUi-53" value="Save" style="rhombus;whiteSpace=wrap;html=1;fillColor=#f5f5f5;strokeColor=#666666;fontColor=#333333;" vertex="1" parent="1">
          <mxGeometry x="1100" y="1150" width="119" height="80" as="geometry" />
        </mxCell>
        <mxCell id="xluItXaHplUzPCtTJGUi-54" value="Save house design View" style="rounded=0;whiteSpace=wrap;html=1;dashed=1;" vertex="1" parent="1">
          <mxGeometry x="1300" y="1160" width="120" height="60" as="geometry" />
        </mxCell>
        <mxCell id="xluItXaHplUzPCtTJGUi-55" style="edgeStyle=orthogonalEdgeStyle;rounded=0;orthogonalLoop=1;jettySize=auto;html=1;" edge="1" parent="1" source="xluItXaHplUzPCtTJGUi-56" target="xluItXaHplUzPCtTJGUi-57">
          <mxGeometry relative="1" as="geometry" />
        </mxCell>
        <mxCell id="xluItXaHplUzPCtTJGUi-56" value="Inquiry" style="rhombus;whiteSpace=wrap;html=1;fillColor=#f5f5f5;strokeColor=#666666;fontColor=#333333;" vertex="1" parent="1">
          <mxGeometry x="1100" y="1330" width="119" height="80" as="geometry" />
        </mxCell>
        <mxCell id="xluItXaHplUzPCtTJGUi-57" value="House Inquiry View" style="rounded=0;whiteSpace=wrap;html=1;" vertex="1" parent="1">
          <mxGeometry x="1300" y="1340" width="120" height="60" as="geometry" />
        </mxCell>
        <mxCell id="xluItXaHplUzPCtTJGUi-58" style="edgeStyle=orthogonalEdgeStyle;rounded=0;orthogonalLoop=1;jettySize=auto;html=1;entryX=0;entryY=0.5;entryDx=0;entryDy=0;exitX=1;exitY=0.5;exitDx=0;exitDy=0;" edge="1" parent="1" source="xluItXaHplUzPCtTJGUi-45" target="xluItXaHplUzPCtTJGUi-56">
          <mxGeometry relative="1" as="geometry">
            <Array as="points">
              <mxPoint x="1070" y="1240" />
              <mxPoint x="1070" y="1370" />
            </Array>
            <mxPoint x="980" y="1340" as="sourcePoint" />
            <mxPoint x="1070" y="1380" as="targetPoint" />
          </mxGeometry>
        </mxCell>
        <mxCell id="xluItXaHplUzPCtTJGUi-61" value="" style="edgeStyle=orthogonalEdgeStyle;rounded=0;orthogonalLoop=1;jettySize=auto;html=1;" edge="1" parent="1" source="xluItXaHplUzPCtTJGUi-59" target="xluItXaHplUzPCtTJGUi-60">
          <mxGeometry relative="1" as="geometry" />
        </mxCell>
        <mxCell id="xluItXaHplUzPCtTJGUi-59" value="Show content" style="rhombus;whiteSpace=wrap;html=1;fillColor=#f5f5f5;strokeColor=#666666;fontColor=#333333;" vertex="1" parent="1">
          <mxGeometry x="1241" y="890" width="119" height="80" as="geometry" />
        </mxCell>
        <mxCell id="xluItXaHplUzPCtTJGUi-60" value="" style="ellipse;whiteSpace=wrap;html=1;fontColor=#333333;strokeColor=#666666;fillColor=#FFFFFF;dashed=1;" vertex="1" parent="1">
          <mxGeometry x="1439.5" y="900" width="60.5" height="60" as="geometry" />
        </mxCell>
        <mxCell id="xluItXaHplUzPCtTJGUi-63" style="edgeStyle=orthogonalEdgeStyle;rounded=0;orthogonalLoop=1;jettySize=auto;html=1;entryX=0;entryY=0.5;entryDx=0;entryDy=0;" edge="1" parent="1" source="xluItXaHplUzPCtTJGUi-62" target="xluItXaHplUzPCtTJGUi-36">
          <mxGeometry relative="1" as="geometry">
            <mxPoint x="120" y="1230" as="targetPoint" />
          </mxGeometry>
        </mxCell>
        <mxCell id="xluItXaHplUzPCtTJGUi-62" value="" style="ellipse;whiteSpace=wrap;html=1;fontColor=#333333;strokeColor=#666666;fillColor=#FFFFFF;dashed=1;" vertex="1" parent="1">
          <mxGeometry x="-5.25" y="1200" width="60.5" height="60" as="geometry" />
        </mxCell>
        <mxCell id="xluItXaHplUzPCtTJGUi-65" value="House model view" style="text;html=1;strokeColor=none;fillColor=none;align=center;verticalAlign=middle;whiteSpace=wrap;rounded=0;dashed=1;" vertex="1" parent="1">
          <mxGeometry x="290" y="1130" width="110" height="20" as="geometry" />
        </mxCell>
      </root>
    </mxGraphModel>
  </diagram>
</mxfile>
